_________________________  Visit us at _________________________
  
http://p2pdl.com  ____________________________  http://p2pdl.com


Mafia 2011 BRRip 720p x264 AAC - PRiSTiNE

Genre: Crime
Plot: (Not Available)
Director: Ryan Combs
Stars: Ving Rhames, Pam Grier, Sean Derry
Rated: Rated R for violence, pervasive language and some sexuality

Info: 
http://www.imdb.com/title/tt1386932/

General
Complete name                  : Mafia 2011 BRRip 720p x264 AAC - PRiSTiNE.mp4
Format                         : MPEG-4
Format profile                 : Base Media
Codec ID                       : isom
File size                      : 520 MiB
Duration                       : 1h 21mn
Overall bit rate mode          : Variable
Overall bit rate               : 887 Kbps

Source                         : NOSCREENS (Thanks)

Video
Format                         : AVC
Format/Info                    : Advanced Video Codec
Format profile                 : High 10@L4.1
Bit rate                       : 803 Kbps
Width                          : 1 280 pixels
Height                         : 720 pixels
Display aspect ratio           : 16:9
Frame rate mode                : Constant
Frame rate                     : 23.976 fps
Color space                    : YUV
Chroma subsampling             : 4:2:0
Bit depth                      : 10 bits
Scan type                      : Progressive
Bits/(Pixel*Frame)             : 0.036
Stream size                    : 469 MiB (90%)
Writing library                : x264 core 129 r2245 bc13772

Audio
Format                         : AAC
Format/Info                    : Advanced Audio Codec
Duration                       : 1h 21mn
Bit rate mode                  : Variable
Bit rate                       : 83.5 Kbps
Channel(s)                     : 2 channels
Channel positions              : Front: L R
Sampling rate                  : 48.0 KHz / 24.0 KHz
Stream size                    : 48.9 MiB (9%)
Language                       : English

Subtitle                       : No

Screens: 
http://imgr.us/images/owqndq33kdc6ayy9tpcn.jpg 
http://imgr.us/images/63u6aglrihgq8mqux81e.jpg 
http://imgr.us/images/3kct19px7yp3aje6xp30.jpg 
http://imgr.us/images/tmbws1gf73vufkkx2qy3.jpg

Thumbs: 
http://imgr.us/images/cbubmq5fly1nmgfzu79s.jpg
----------------------------------------------------------------------------------------------------
Encoded using revolutionary 10bit encoding, which enables us to provide you more crispier 
and sharper images at small sizes, just make sure you follow our instructions without a fault.
Recommend to you to use latest version of VLC player. Install K-Lite Codec Pack or shark007 codecs
in case of any kind of problem in playback (For non-VLC Media Player users). Alternatively, install
Core AVC codecs, the fastest decoder that there is coupled with Community Center Codec Pack and play
on Windows Media Player Classic. Check sample to be sure.
Enjoy!